<?xml version="1.0" standalone="no"?>
<!DOCTYPE svg PUBLIC "-//W3C//DTD SVG 20010904//EN"
 "http://www.w3.org/TR/2001/REC-SVG-20010904/DTD/svg10.dtd">
<svg version="1.0" xmlns="http://www.w3.org/2000/svg"
 width="215.000000pt" height="215.000000pt" viewBox="0 0 215.000000 215.000000"
 preserveAspectRatio="xMidYMid meet">
<metadata>
Created by potrace 1.14, written by Peter Selinger 2001-2017
</metadata>
<g transform="translate(0.000000,215.000000) scale(0.100000,-0.100000)"
fill="#000000" stroke="none">
<path d="M1650 1891 c-8 -10 -20 -26 -26 -37 -25 -44 -199 -170 -339 -245 -22
-12 -42 -25 -45 -29 -3 -3 -20 -13 -37 -21 -18 -8 -33 -17 -33 -21 0 -5 -5 -8
-10 -8 -14 0 -132 -74 -195 -122 -27 -21 -79 -67 -115 -102 -72 -71 -134 -105
-192 -106 -20 0 -40 -5 -43 -10 -4 -7 -11 -8 -18 -1 -14 11 -157 -35 -179 -57
-7 -7 -8 -12 -3 -11 9 3 115 -30 115 -35 0 -2 -37 -2 -82 -2 -54 1 -83 5 -86
14 -3 9 -9 9 -25 0 -42 -22 -63 -56 -62 -98 1 -31 34 -100 47 -100 7 0 7 5 1
13 -5 6 -9 25 -9 42 1 26 8 33 56 57 62 32 80 35 80 13 0 -9 6 -15 13 -13 6 1
33 -1 58 -5 47 -8 59 -20 75 -77 21 -80 106 -211 194 -300 43 -44 112 -92 121
-83 12 12 18 142 7 149 -5 3 -7 12 -5 19 8 20 -51 127 -95 172 -80 81 -193
128 -345 142 -7 0 -13 5 -13 11 0 5 6 7 12 5 7 -3 36 -7 63 -9 59 -5 83 -10
144 -31 25 -8 50 -15 55 -14 5 0 12 -3 15 -8 3 -4 27 -19 54 -33 64 -33 136
-105 171 -170 23 -42 29 -66 29 -119 1 -92 -17 -163 -52 -205 -44 -53 95 49
188 137 72 69 166 196 208 282 39 80 86 205 77 205 -4 0 -1 7 6 15 7 8 10 21
7 30 -4 8 -3 16 1 19 4 2 9 19 10 37 2 18 6 36 11 39 10 6 31 45 31 57 0 4 -4
3 -8 -3 -19 -27 -204 -86 -279 -88 -23 0 -45 -5 -50 -9 -4 -5 -3 -8 2 -7 6 1
12 1 15 0 6 -2 46 -6 108 -11 24 -2 46 -7 48 -11 5 -8 -7 -9 -98 -12 -35 -1
-62 -11 -35 -14 6 0 19 -3 27 -5 8 -2 30 -7 48 -11 17 -4 32 -12 32 -17 0 -8
-51 -6 -98 5 -16 3 -22 1 -19 -7 2 -7 8 -12 13 -13 17 -1 64 -23 64 -30 0 -6
-56 1 -94 13 -12 3 -16 1 -12 -6 4 -6 14 -11 22 -11 8 0 25 -10 37 -21 12 -12
17 -19 10 -15 -6 3 -26 8 -43 10 l-32 4 26 -25 c35 -32 33 -39 -3 -14 -16 12
-43 24 -60 27 -17 4 -28 11 -24 17 3 6 1 7 -6 3 -14 -9 -5 -26 15 -26 8 0 14
-7 14 -16 0 -8 3 -13 8 -11 4 3 13 -1 20 -9 19 -21 9 -18 -65 20 -38 19 -92
42 -120 52 -29 10 -53 22 -53 27 0 4 4 6 8 3 12 -7 47 43 48 68 0 22 -22 71
-44 94 -10 11 -8 19 7 41 11 15 27 34 35 41 9 7 13 17 9 24 -3 6 -3 8 1 5 4
-4 27 12 52 35 47 44 322 223 336 218 4 -1 8 2 8 8 0 5 7 10 15 10 8 0 15 3
15 8 0 4 17 16 38 27 20 11 42 24 48 30 7 5 25 19 40 30 81 57 143 129 156
183 7 26 -1 27 -22 3z m-1092 -767 c14 -15 14 -16 -3 -13 -10 2 -20 10 -23 17
-5 17 6 15 26 -4z m407 -148 c37 -8 110 -52 151 -92 43 -40 45 -43 14 -24 -19
11 -45 26 -57 32 -13 6 -23 15 -23 20 0 4 -6 8 -12 8 -7 0 -31 9 -53 19 -50
25 -78 35 -88 32 -5 -1 -6 3 -3 8 5 8 22 8 71 -3z"/>
<path d="M1793 1877 c-10 -21 -55 -62 -148 -136 -14 -10 -95 -68 -160 -112
-27 -19 -61 -44 -75 -56 -13 -13 -30 -23 -37 -23 -6 0 -14 -4 -17 -8 -7 -12
27 -11 35 0 3 5 16 10 27 11 12 1 22 5 22 9 0 4 9 8 20 8 11 0 20 5 20 10 0 6
3 9 8 8 11 -2 96 39 123 60 13 11 38 26 55 35 17 9 54 38 83 66 44 43 54 59
50 87 0 4 3 10 8 13 5 3 7 17 3 30 l-5 24 -12 -26z"/>
<path d="M1705 1646 c-27 -18 -63 -41 -80 -51 -30 -19 -238 -127 -242 -126 -2
0 -23 -8 -49 -19 -25 -11 -50 -20 -55 -20 -5 0 -9 -5 -9 -11 0 -5 -3 -8 -7 -6
-5 3 -17 0 -28 -4 -14 -7 -3 -8 32 -5 50 5 52 4 41 -14 -7 -10 -24 -25 -38
-32 -14 -7 -31 -19 -38 -25 -11 -11 -11 -13 2 -13 9 0 16 5 16 12 0 6 2 9 5 6
9 -8 116 27 177 58 132 67 277 185 314 256 8 15 13 28 12 28 -2 -1 -25 -16
-53 -34z"/>
<path d="M1009 1556 c-2 -2 -28 -7 -58 -10 -30 -4 -60 -11 -67 -17 -7 -6 -18
-8 -24 -4 -5 3 -10 2 -10 -3 0 -5 -6 -9 -12 -9 -7 0 -29 -7 -48 -15 -19 -9
-42 -19 -50 -22 -68 -30 -143 -103 -180 -177 -17 -32 -27 -59 -23 -59 5 0 24
4 43 10 19 5 53 12 75 15 73 11 100 15 116 18 9 1 45 32 81 67 35 36 71 70 79
76 52 38 144 98 176 114 l38 19 -66 1 c-36 0 -68 -2 -70 -4z"/>
<path d="M1638 1472 c-4 -11 -123 -82 -136 -82 -6 0 -12 -3 -14 -7 -4 -11
-129 -69 -140 -66 -4 2 -8 -1 -8 -5 0 -5 -36 -21 -80 -36 -44 -16 -80 -30 -80
-33 0 -7 122 8 175 21 6 2 21 7 35 13 14 6 42 16 63 24 20 7 37 17 37 21 0 4
6 8 13 8 7 0 41 26 75 57 63 56 92 93 73 93 -5 0 -11 -4 -13 -8z"/>
<path d="M1779 580 c-8 -5 -26 -11 -40 -14 -47 -8 -84 -19 -94 -26 -5 -4 -18
-6 -27 -5 -10 2 -18 0 -18 -5 0 -5 -8 -7 -17 -5 -10 1 -22 0 -28 -4 -12 -7
-133 -42 -160 -46 -18 -2 -32 -6 -75 -23 -8 -3 -18 -5 -21 -4 -4 1 -22 -3 -40
-9 -19 -6 -43 -12 -54 -14 -19 -3 -315 -76 -385 -95 -37 -9 -204 -50 -230 -55
-8 -2 -35 -8 -60 -15 -25 -7 -54 -14 -65 -15 -11 -1 -20 -3 -20 -4 0 -3 -13
-6 -55 -15 -14 -3 -59 -13 -100 -23 -41 -9 -81 -16 -87 -16 -7 0 -13 -5 -13
-10 0 -5 -7 -7 -15 -4 -8 4 -17 2 -20 -4 -4 -5 -12 -6 -18 -3 -8 5 -9 4 -2 -4
6 -6 28 -14 49 -18 22 -3 50 -10 63 -15 13 -5 27 -8 31 -8 4 1 10 0 15 -1 16
-5 66 -16 112 -25 11 -2 20 -4 20 -5 0 -1 14 -4 30 -6 28 -4 58 5 140 37 17 7
35 13 40 15 10 2 218 80 245 91 8 3 17 7 20 8 19 4 87 29 95 34 6 3 15 6 20 7
12 3 222 81 250 94 11 5 49 19 85 31 36 12 70 26 75 29 6 4 28 13 50 20 22 7
46 18 54 24 8 6 16 10 18 8 5 -5 95 29 108 40 5 4 17 8 27 8 10 0 18 5 18 11
0 5 4 8 8 5 4 -2 26 4 49 14 23 10 45 15 49 12 4 -4 4 -1 0 6 -8 14 -7 14 -27
2z"/>
</g>
</svg>
